<?xml version="1.0" ?><svg enable-background="new 0 0 128 128" id="Layer_1" version="1.1" viewBox="0 0 128 128" xml:space="preserve" xmlns="http://www.w3.org/2000/svg" xmlns:xlink="http://www.w3.org/1999/xlink"><g><g><g><g><g><circle cx="64" cy="64" fill="#2979A2" r="64"/></g></g></g><g><g><g><path d="M128,64c0,15.56-5.55,29.82-14.77,40.91l-97.05,1.63C9.68,99.25,4.83,90.46,2.22,80.75       c0.92-0.98,2.15-1.95,4.08-2.9c6.71-3.3,8.48,0.29,15.2-3.01c6.71-3.3,4.94-6.89,11.65-10.19c6.72-3.3,8.48,0.29,15.19-3.01       c6.71-3.3,4.95-6.89,11.66-10.19c6.71-3.3,8.47,0.29,15.18-3.01s4.95-6.89,11.66-10.19c6.71-3.3,8.48,0.29,15.19-3.01       c6.71-3.3,4.94-6.89,11.65-10.19c0.28-0.14,0.55-0.26,0.82-0.37C122.96,35.53,128,49.17,128,64z" fill="#CBEAED"/></g></g></g><g><g><g><path d="M127.99,64.99C127.46,99.88,99.02,128,64,128c-26.23,0-48.78-15.78-58.66-38.36       c8.98-0.45,42.16-3.04,68.99-17.31C93.83,61.96,114.88,62.85,127.99,64.99z" fill="#B99AC8"/></g></g></g><g><g><g><g><g><g><g><g><g><g><path d="M106.594,49.211c-0.759,3.756-2.92,7.013-3.818,10.413c-1.005,3.805-0.811,7.889-1.915,11.074              c-1.362,3.931-3.928,6.491-5.306,9.16c-2.302,4.459-2.043,16.677-3.834,16.315c-1.791-0.362-4.127-12.999-4.517-18.001              c-0.234-2.995-1.604-6.35-1.333-10.5c0.219-3.363,1.983-7.051,2.534-10.948c0.493-3.484-0.234-7.325,0.525-11.082              c0.759-3.756,2.92-7.013,3.818-10.413c1.005-3.805,0.811-7.889,1.915-11.074c1.362-3.931,3.928-6.491,5.306-9.161              c2.302-4.459,4.179-8.4,5.97-8.038c1.791,0.362,1.991,4.722,2.381,9.724c0.234,2.995,1.604,6.35,1.333,10.5              c-0.219,3.363-1.983,7.051-2.534,10.948C106.626,41.612,107.353,45.454,106.594,49.211z" fill="#54A5C5"/></g></g></g></g></g></g></g></g></g><g><g><g><g><g><g><g><g><g><path d="M119.506,71.766c-1.407,2.558-4.387,4.067-5.908,6.284c-1.702,2.48-2.039,5.742-3.771,7.694              c-2.137,2.409-5.495,3.187-7.477,4.609c-3.31,2.376-6.053,4.55-8.099,3.424c-2.046-1.126-1.678-4.606-1.444-8.673              c0.14-2.435-1.001-5.687-0.111-8.782c0.721-2.508,3.295-4.539,4.479-7.304c1.058-2.472,0.738-5.798,2.146-8.357              c1.407-2.558,4.387-4.067,5.908-6.284c1.702-2.48,2.039-5.742,3.771-7.694c2.137-2.409,5.495-3.187,7.477-4.609              c3.31-2.376,6.053-4.55,8.099-3.424c2.046,1.126,1.678,4.606,1.444,8.673c-0.14,2.435,1.001,5.687,0.111,8.782              c-0.721,2.508-3.295,4.539-4.479,7.304C120.594,65.881,120.914,69.207,119.506,71.766z" fill="#65C7CF"/></g></g></g></g></g></g></g></g></g></g><g><g><g><g><g><g><g><g><g><g><path d="M27.421,57.841c0.626,3.096,2.837,5.695,3.638,8.486c0.896,3.124,0.445,6.55,1.486,9.149              c1.285,3.208,3.987,5.2,5.363,7.353c2.299,3.595,1.305,13.826,3.315,13.42c2.01-0.406,5.336-11.108,6.058-15.313              c0.433-2.517,2.149-5.402,2.088-8.857c-0.049-2.799-1.795-5.781-2.182-9.007c-0.346-2.884,0.683-6.139,0.058-9.236              c-0.626-3.096-2.837-5.695-3.638-8.486c-0.896-3.124-0.445-6.55-1.486-9.149c-1.285-3.208-3.987-5.2-5.363-7.353              c-2.299-3.595-4.156-6.782-6.166-6.376c-2.01,0.406-2.484,4.064-3.207,8.268c-0.433,2.517-2.149,5.402-2.088,8.857              c0.049,2.799,1.795,5.781,2.182,9.007C27.825,51.489,26.795,54.744,27.421,57.841z" fill="#54A5C5"/></g></g></g></g></g></g></g></g></g><g><g><g><g><g><g><g><g><g><path d="M15.997,74.352c0.489,2.357,2.472,4.268,3.134,6.383c0.74,2.367,0.217,5.02,1.109,6.977              c1.101,2.416,3.559,3.842,4.776,5.443c2.034,2.674,3.668,5.052,5.554,4.66c1.885-0.392,2.438-3.223,3.239-6.485              c0.479-1.953,2.166-4.239,2.214-6.894c0.039-2.151-1.498-4.375-1.761-6.841c-0.235-2.205,0.822-4.748,0.333-7.105              c-0.489-2.357-2.472-4.268-3.134-6.383c-0.74-2.367-0.217-5.02-1.109-6.977c-1.101-2.416-3.559-3.842-4.776-5.443              c-2.034-2.674-3.668-5.052-5.554-4.66c-1.885,0.392-2.438,3.223-3.239,6.485c-0.479,1.953-2.166,4.239-2.214,6.894              c-0.039,2.151,1.498,4.375,1.761,6.841C16.565,69.451,15.507,71.995,15.997,74.352z" fill="#65C7CF"/></g></g></g></g></g></g></g></g></g></g><g><g><g><path d="M118.64,97.35C107.39,115.73,87.13,128,64,128S20.61,115.73,9.36,97.35H118.64z" fill="#65C7CF"/></g></g></g></g><g><g><circle cx="56.896" cy="16.298" fill="#FFFFFF" r="1.681"/></g><g><circle cx="67.676" cy="12.937" fill="#FFFFFF" r="1.681"/></g><g><circle cx="53.534" cy="40.072" fill="#FFFFFF" r="1.681"/></g><g><circle cx="80.747" cy="30.169" fill="#FFFFFF" r="1.681"/></g><g><circle cx="62.856" cy="26.645" fill="#FFFFFF" r="1.681"/></g><g><circle cx="46.413" cy="25.805" fill="#EDE8EE" r="0.84"/></g><g><circle cx="59.92" cy="34.401" fill="#FFFFFF" r="0.84"/></g><g><circle cx="76.037" cy="18.056" fill="#EDE8EE" r="0.84"/></g></g><g><g><circle cx="20.683" cy="55.015" fill="#FFFFFF" r="1.681"/></g><g><circle cx="31.463" cy="51.654" fill="#FFFFFF" r="1.681"/></g><g><circle cx="17.321" cy="78.789" fill="#FFFFFF" r="1.681"/></g><g><circle cx="44.534" cy="68.885" fill="#FFFFFF" r="1.681"/></g><g><circle cx="26.643" cy="65.362" fill="#FFFFFF" r="1.681"/></g><g><circle cx="10.2" cy="64.522" fill="#EDE8EE" r="0.84"/></g><g><circle cx="23.707" cy="73.118" fill="#FFFFFF" r="0.84"/></g><g><circle cx="39.824" cy="56.773" fill="#EDE8EE" r="0.84"/></g></g><g><g><g><g><g><polygon fill="#173842" points="106.42,97.35 98.294,46.68 89.338,97.35       "/></g></g></g><g><g><g><polygon fill="#FFFFFF" points="98.294,46.68 39.771,47.517 30.2,97.35 89.331,97.35 89.338,97.12       "/></g></g></g></g><g><g><g><polygon fill="#65C7CF" points="50.302,68.283 43.446,68.381 44.517,62.498 51.373,62.4      "/></g></g></g><g><g><g><polygon fill="#65C7CF" points="62.153,68.114 55.297,68.212 56.368,62.329 63.224,62.231      "/></g></g></g><g><g><g><polygon fill="#65C7CF" points="74.004,67.944 67.148,68.043 68.219,62.159 75.075,62.061      "/></g></g></g><g><g><g><polygon fill="#65C7CF" points="85.855,67.775 78.999,67.873 80.07,61.99 86.926,61.892      "/></g></g></g><g><g><g><polygon fill="#65C7CF" points="48.478,78.304 41.622,78.402 42.693,72.519 49.549,72.421      "/></g></g></g><g><g><g><polygon fill="#65C7CF" points="60.329,78.135 53.473,78.233 54.544,72.35 61.4,72.252      "/></g></g></g><g><g><g><polygon fill="#B99AC8" points="72.18,77.965 65.324,78.063 66.395,72.18 73.251,72.082      "/></g></g></g><g><g><g><polygon fill="#65C7CF" points="84.031,77.796 77.175,77.894 78.246,72.011 85.102,71.913      "/></g></g></g><g><g><g><polygon fill="#65C7CF" points="46.654,88.325 39.798,88.423 40.869,82.54 47.725,82.442      "/></g></g></g><g><g><g><polygon fill="#65C7CF" points="58.505,88.156 51.649,88.254 52.72,82.37 59.576,82.272      "/></g></g></g><g><g><g><polygon fill="#65C7CF" points="70.356,87.986 63.5,88.084 64.571,82.201 71.427,82.103      "/></g></g></g><g><g><g><polygon fill="#65C7CF" points="82.207,87.817 75.351,87.915 76.422,82.032 83.278,81.933      "/></g></g></g><g><g><g><polygon fill="#B99AC8" points="39.771,47.517 98.294,46.68 96.908,54.484 38.263,55.372      "/></g></g></g></g><g><g><circle cx="82.75" cy="94.21" fill="#65C7CF" r="1.681"/></g><g><circle cx="93.53" cy="90.849" fill="#FFFFFF" r="1.681"/></g><g><circle cx="79.388" cy="117.984" fill="#FFFFFF" r="1.681"/></g><g><circle cx="106.601" cy="108.081" fill="#FFFFFF" r="1.681"/></g><g><circle cx="88.71" cy="104.557" fill="#FFFFFF" r="1.681"/></g><g><circle cx="72.267" cy="103.717" fill="#EDE8EE" r="0.84"/></g><g><circle cx="85.774" cy="112.313" fill="#FFFFFF" r="0.84"/></g><g><circle cx="101.891" cy="95.968" fill="#EDE8EE" r="0.84"/></g></g></g></svg>